Motion_mu03
version=1
nRows=10
nColumns=43
inDegrees=yes
endheader
time	pelvis_tilt	pelvis_list	pelvis_rotation	pelvis_tx	pelvis_ty	pelvis_tz	hip_flexion_r	hip_adduction_r	hip_rotation_r	knee_angle_r	ankle_angle_r	subtalar_angle_r	mtp_angle_r	hip_flexion_l	hip_adduction_l	hip_rotation_l	knee_angle_l	ankle_angle_l	subtalar_angle_l	mtp_angle_l	lumbar_extension	lumbar_bending	lumbar_rotation	neck_flexion	neck_lateral_bending	neck_rotation	arm_flex_r	arm_add_r	arm_rot_r	elbow_flex_r	pro_sup_r	wrist_flex_r	wrist_dev_r	hand_finger_flex_r	arm_flex_l	arm_add_l	arm_rot_l	elbow_flex_l	pro_sup_l	wrist_flex_l	wrist_dev_l	hand_finger_flex_l
      4.21250000	     -2.53961519	     14.85816599	    -88.73166580	     -0.03309575	      1.89433264	      0.97927737	     16.13445064	     -0.43787388	    -11.64460096	    -14.02177482	    -22.54173423	      5.91390771	      1.23688771	     18.39560758	     -4.91480252	    -12.01887287	    -13.69034700	    -24.58837722	     14.39182548	      5.13878720	    -34.25022426	      3.43796511	     -3.55315813	    -13.22856934	     -7.57703692	     -0.62204474	   -214.77368566	   -151.98970903	   -190.02487769	    108.23075733	    163.34676738	    -52.18732458	    -24.99999983	     75.19273072	    -40.71774146	    -17.42497268	    -21.27228215	    106.95248386	    173.58506370	    -58.53840715	    -24.99999983	     77.68731496
      4.21500000	     -2.53360309	     14.84308467	    -88.74797877	     -0.03308982	      1.89251536	      0.97854716	     16.07553042	     -0.43042690	    -11.63981827	    -13.94596746	    -22.54097935	      5.94519678	      1.24078199	     18.34221774	     -4.93037479	    -12.02630439	    -13.63858656	    -24.61456378	     14.40501554	      5.12980832	    -34.18750057	      3.42569551	     -3.57637808	    -13.43190992	     -7.56386920	     -0.62487832	   -215.03791784	   -151.98065822	   -190.21638653	    108.61064892	    163.33632907	    -52.17856369	    -24.99999983	     75.19585158	    -41.02180685	    -17.31884853	    -21.48051340	    107.34274819	    173.55881203	    -58.62872683	    -24.99999983	     77.73629211
      4.21750000	     -2.53262646	     14.83163421	    -88.76853942	     -0.03306923	      1.89073604	      0.97771794	     16.02292678	     -0.41568823	    -11.63614071	    -13.86817967	    -22.53453388	      5.97927071	      1.24543154	     18.30043702	     -4.94820669	    -12.03566976	    -13.57708909	    -24.63821111	     14.42154223	      5.12115830	    -34.13511438	      3.41659921	     -3.60064454	    -13.64422529	     -7.55338549	     -0.62840057	   -215.28077497	   -151.96900746	   -190.41840747	    109.00723090	    163.32909185	    -52.16495002	    -24.99999983	     75.20215312	    -41.31099508	    -17.20549148	    -21.69683613	    107.75394907	    173.53374610	    -58.71738205	    -24.99999983	     77.78809954
      4.22000000	     -2.53499997	     14.81788625	    -88.79022215	     -0.03306817	      1.88890453	      0.97694322	     15.96667772	     -0.39765279	    -11.63136531	    -13.79942379	    -22.52793228	      6.01718557	      1.25001427	     18.25403909	     -4.97125728	    -12.04489156	    -13.51886250	    -24.66488085	     14.44150958	      5.11218247	    -34.07261659	      3.40967118	     -3.62151143	    -13.85231727	     -7.54357181	     -0.63174576	   -215.53777834	   -151.96070707	   -190.61720494	    109.39778384	    163.32797989	    -52.14031303	    -24.99999983	     75.21343331	    -41.61523887	    -17.07883773	    -21.91767603	    108.16052928	    173.51212321	    -58.79976270	    -24.99999983	     77.84547384
      4.22250000	     -2.53901051	     14.80471181	    -88.81385237	     -0.03309139	      1.88709077	      0.97610388	     15.91793224	     -0.37537819	    -11.62772719	    -13.72928231	    -22.51983458	      6.05848572	      1.25449386	     18.20804934	     -5.00032971	    -12.05633202	    -13.45671506	    -24.69160412	     14.46450098	      5.10341247	    -34.01459929	      3.40154773	     -3.64382433	    -14.06591668	     -7.54062643	     -0.63208799	   -215.78140004	   -151.94668862	   -190.81855927	    109.80258546	    163.33126262	    -52.10964745	    -24.99999983	     75.22846725	    -41.90933128	    -16.94863624	    -22.14408124	    108.57321566	    173.49171930	    -58.87748245	    -24.99999983	     77.90605503
      4.22500000	     -2.54399232	     14.78841272	    -88.84076920	     -0.03311346	      1.88526322	      0.97529269	     15.86843499	     -0.35279277	    -11.62406633	    -13.66347237	    -22.51403693	      6.10297472	      1.25827137	     18.15666552	     -5.03149220	    -12.06918864	    -13.39708021	    -24.72071359	     14.49024850	      5.09464925	    -33.95141437	      3.39534052	     -3.66385737	    -14.27820719	     -7.54433517	     -0.62786640	   -216.02833607	   -151.93539164	   -191.01664204	    110.20552507	    163.33885534	    -52.06980505	    -24.99999983	     75.24801778	    -42.20914592	    -16.81102406	    -22.37127346	    108.98132276	    173.47285765	    -58.94966527	    -24.99999983	     77.96975321
      4.22750000	     -2.54938128	     14.77037302	    -88.87164983	     -0.03314778	      1.88344613	      0.97444766	     15.82014756	     -0.32846575	    -11.62160420	    -13.59694681	    -22.50953423	      6.15086664	      1.26152804	     18.10372582	     -5.06437634	    -12.08475876	    -13.33546482	    -24.74981665	     14.51872526	      5.08618444	    -33.89106842	      3.38706788	     -3.68496987	    -14.49503683	     -7.55601764	     -0.61809848	   -216.26586477	   -151.92259194	   -191.21850200	    110.62043486	    163.34858175	    -52.02104549	    -24.99999983	     75.27182271	    -42.50220388	    -16.66986960	    -22.60288449	    109.39449356	    173.45431178	    -59.01792468	    -24.99999983	     78.03569136
      4.23000000	     -2.55424798	     14.74920691	    -88.90759410	     -0.03317975	      1.88161930	      0.97362952	     15.76662998	     -0.30515327	    -11.61965477	    -13.53471464	    -22.50881332	      6.20045371	      1.26386138	     18.04576697	     -5.09627368	    -12.10135216	    -13.27698292	    -24.77948219	     14.54892331	      5.07797494	    -33.82527488	      3.37834817	     -3.70532458	    -14.71099505	     -7.57364261	     -0.60270510	   -216.50425907	   -151.91087971	   -191.41697686	    111.04002167	    163.35848180	    -51.96344321	    -24.99999983	     75.29933135	    -42.79642470	    -16.52578314	    -22.83388403	    109.80222320	    173.43626081	    -59.08210427	    -24.99999983	     78.10217027
      4.23250000	     -2.55844696	     14.72401634	    -88.94542048	     -0.03323678	      1.87980206	      0.97275947	     15.71460647	     -0.27959144	    -11.61845161	    -13.46950975	    -22.50812587	      6.25495286	      1.26614125	     17.98701366	     -5.13108520	    -12.12106382	    -13.21464292	    -24.80644461	     14.58285146	      5.07016671	    -33.77051050	      3.36241281	     -3.72644694	    -14.93230902	     -7.59856390	     -0.58109726	   -216.73936626	   -151.90141535	   -191.62963775	    111.46559564	    163.36857727	    -51.88565806	    -24.99999983	     75.33347056	    -43.08931085	    -16.37056018	    -23.07031597	    110.22525221	    173.41977072	    -59.14242080	    -24.99999983	     78.17294128
      4.23500000	     -2.56064060	     14.69410375	    -88.98806951	     -0.03330587	      1.87796790	      0.97191997	     15.65773308	     -0.25436017	    -11.61691760	    -13.40805355	    -22.50940536	      6.31195560	      1.26803608	     17.92114775	     -5.16545921	    -12.14170408	    -13.15540389	    -24.83055883	     14.61931244	      5.06276538	    -33.71290755	      3.34547108	     -3.74528458	    -15.15096885	     -7.62615879	     -0.55431576	   -216.97723511	   -151.89077659	   -191.83702162	    111.90279618	    163.37739813	    -51.78934480	    -24.99999983	     75.37278246	    -43.38421438	    -16.21343489	    -23.30885760	    110.64245528	    173.40663977	    -59.19583520	    -24.99999983	     78.24665995
